# xmcd CD database file
#
# Track frame offsets:
#	150
#	27192
#	48630
#	77373
#	101293
#	125926
#	159102
#	182200
#	207998
#	232657
#
# Disc length: 3454 seconds
#
# Revision: 0
# Processed by: cddbd v1.5.1PL0 Copyright (c) Steve Scherf et al.
# Submitted via: CDex 1.51
#
DISCID=740d7c0a
DTITLE=Grover Washington Jr.  - Anthology
DYEAR=1985
DGENRE=Jazz
TTITLE0=The Best is Yet to Come
TTITLE1=East River Drive
TTITLE2=Be Mine (Tonight)
TTITLE3=Can You Dig it
TTITLE4=In the Name of Love
TTITLE5=Just the Two of Us
TTITLE6=Jammin'
TTITLE7=Little Black Samba
TTITLE8=Jet Stream
TTITLE9=Let it Flow (for Dr. J)
EXTD=YEAR: 1985
EXTT0=
EXTT1=
EXTT2=
EXTT3=
EXTT4=
EXTT5=
EXTT6=
EXTT7=
EXTT8=
EXTT9=
PLAYORDER=
